#N canvas 161 80 1026 493 12;
#X text 60 20 síntesis por modulación;
#X floatatom 85 159 5 20 20000 0 - - - 0;
#X obj 86 267 *~;
#X obj 153 233 osc~ 1;
#X obj 86 194 osc~ 400;
#X floatatom 153 197 5 0 20000 0 - - - 0;
#X obj 86 301 *~;
#X floatatom 135 282 5 0 1 0 - - - 0;
#X obj 86 337 dac~;
#X floatatom 476 108 5 0 0 0 - - - 0;
#X obj 477 157 *~ 140;
#X floatatom 551 117 5 0 0 0 - - - 0;
#X obj 460 202 +~;
#X floatatom 390 149 5 20 20000 0 - - - 0;
#X obj 460 227 osc~;
#X obj 486 267 *~;
#X floatatom 515 228 5 0 1 0 - - - 0;
#X obj 469 348 dac~;
#X text 387 122 carrier;
#X text 476 79 moduladora;
#X obj 477 132 osc~ 1;
#X text 595 117 indice;
#X obj 821 366 writesf~ 2;
#X msg 879 278 start;
#X msg 884 310 stop;
#X text 639 77 envolvente;
#X obj 612 234 line~;
#X msg 572 184 0 \, 0.1 300;
#X obj 669 114 bng 15 250 50 0 empty empty empty 17 7 0 10 #fcfcfc
#000000 #000000;
#X obj 669 143 delay 1000;
#X msg 689 184 0.1 \, 0 1000;
#X msg 870 244 open sonido2.wav;
#X text 59 69 Amplitud modulada;
#X text 161 170 moduladora;
#X text 84 128 frecuencia;
#X text 174 281 amplitud;
#X text 460 49 amplitud modulada;
#X text 846 172 Para grabar sonido al disco;
#X text 844 194 1 conecta las salidas del multlipicador *~ a las entradas
de writesf;
#X connect 1 0 4 0;
#X connect 2 0 6 0;
#X connect 3 0 2 1;
#X connect 5 0 3 0;
#X connect 6 0 8 0;
#X connect 6 0 8 1;
#X connect 7 0 6 1;
#X connect 9 0 20 0;
#X connect 10 0 12 1;
#X connect 11 0 10 1;
#X connect 12 0 14 0;
#X connect 13 0 12 0;
#X connect 14 0 15 0;
#X connect 15 0 17 0;
#X connect 15 0 17 1;
#X connect 16 0 15 1;
#X connect 20 0 10 0;
#X connect 23 0 22 0;
#X connect 24 0 22 0;
#X connect 26 0 15 1;
#X connect 27 0 26 0;
#X connect 28 0 29 0;
#X connect 28 0 27 0;
#X connect 29 0 30 0;
#X connect 30 0 26 0;
#X connect 31 0 22 0;
